<?xml version="1.0" encoding="UTF-8"?>
<svg xmlns="http://www.w3.org/2000/svg" xmlns:xlink="http://www.w3.org/1999/xlink"
     width="800" height="600" viewBox="0 0 800 600">
<defs>
</defs>
<rect x="0" y="0" width="800" height="600" fill="white" stroke="black" stroke-width="2" />
<rect x="0" y="0" width="800" height="80" fill="#f0f0f0" stroke="black" stroke-width="1" />
<text x="400" y="50" font-size="40" text-anchor="middle" font-weight="bold">Task Manager</text>
<rect x="20" y="20" width="100" height="40" fill="#e0e0e0" stroke="black" stroke-width="1" />
<text x="70" y="45" font-size="14" text-anchor="middle">Home</text>
<rect x="130" y="20" width="100" height="40" fill="#e0e0e0" stroke="black" stroke-width="1" />
<text x="180" y="45" font-size="14" text-anchor="middle">About</text>
<rect x="50" y="100" width="700" height="150" fill="#f8f8f8" stroke="black" stroke-width="1" />
<text x="400" y="120" font-size="18" text-anchor="middle" font-weight="bold">About Me</text>
<rect x="100" y="140" width="150" height="90" fill="#e0e0e0" stroke="black" stroke-width="1" />
<text x="175" y="185" font-size="14" text-anchor="middle">Profile Image</text>
<rect x="270" y="140" width="450" height="90" fill="white" stroke="black" stroke-width="1" />
<text x="495" y="185" font-size="14" text-anchor="middle" fill="#888888">Personal Bio Text</text>
<rect x="50" y="270" width="700" height="230" fill="#f8f8f8" stroke="black" stroke-width="1" />
<text x="400" y="290" font-size="18" text-anchor="middle" font-weight="bold">Contact Form</text>
<text x="150" y="335" font-size="14" text-anchor="end">Name:</text>
<rect x="170" y="320" width="480" height="30" fill="white" stroke="black" stroke-width="1" />
<text x="150" y="385" font-size="14" text-anchor="end">Email:</text>
<rect x="170" y="370" width="480" height="30" fill="white" stroke="black" stroke-width="1" />
<text x="150" y="435" font-size="14" text-anchor="end">Message:</text>
<rect x="170" y="420" width="480" height="60" fill="white" stroke="black" stroke-width="1" />
<text x="410" y="450" font-size="14" text-anchor="middle" fill="#888888">Type your message here...</text>
<rect x="400" y="490" width="100" height="30" fill="#4CAF50" stroke="black" stroke-width="1" />
<text x="450" y="510" font-size="14" text-anchor="middle" fill="white">Submit</text>
<rect x="0" y="520" width="800" height="80" fill="#f0f0f0" stroke="black" stroke-width="1" />
<text x="400" y="560" font-size="14" text-anchor="middle">© 2025 Task Manager</text>
</svg>