<?xml version="1.0" encoding="UTF-8"?>
<svg xmlns="http://www.w3.org/2000/svg" xmlns:xlink="http://www.w3.org/1999/xlink"
     width="800" height="600" viewBox="0 0 800 600">
<defs>
</defs>
<rect x="0" y="0" width="800" height="600" fill="white" stroke="black" stroke-width="2" />
<rect x="0" y="0" width="800" height="80" fill="#f0f0f0" stroke="black" stroke-width="1" />
<text x="400" y="50" font-size="40" text-anchor="middle" font-weight="bold">Task Manager</text>
<rect x="20" y="20" width="100" height="40" fill="#e0e0e0" stroke="black" stroke-width="1" />
<text x="70" y="45" font-size="14" text-anchor="middle">Home</text>
<rect x="130" y="20" width="100" height="40" fill="#e0e0e0" stroke="black" stroke-width="1" />
<text x="180" y="45" font-size="14" text-anchor="middle">About</text>
<rect x="50" y="100" width="700" height="80" fill="#f8f8f8" stroke="black" stroke-width="1" />
<text x="400" y="120" font-size="18" text-anchor="middle" font-weight="bold">Add New Task</text>
<rect x="100" y="140" width="500" height="30" fill="white" stroke="black" stroke-width="1" />
<text x="350" y="160" font-size="14" text-anchor="middle" fill="#888888">Task input field</text>
<rect x="620" y="140" width="100" height="30" fill="#4CAF50" stroke="black" stroke-width="1" />
<text x="670" y="160" font-size="14" text-anchor="middle" fill="white">Add Task</text>
<rect x="50" y="200" width="700" height="300" fill="#f8f8f8" stroke="black" stroke-width="1" />
<text x="400" y="220" font-size="18" text-anchor="middle" font-weight="bold">Task List</text>
<rect x="100" y="240" width="350" height="40" fill="#e0e0e0" stroke="black" stroke-width="1" />
<text x="275" y="265" font-size="14" text-anchor="middle" font-weight="bold">Task Name</text>
<rect x="450" y="240" width="200" height="40" fill="#e0e0e0" stroke="black" stroke-width="1" />
<text x="550" y="265" font-size="14" text-anchor="middle" font-weight="bold">Status</text>
<rect x="100" y="280" width="350" height="40" fill="white" stroke="black" stroke-width="1" />
<text x="275" y="305" font-size="14" text-anchor="middle">Sample Task 1</text>
<rect x="450" y="280" width="200" height="40" fill="white" stroke="black" stroke-width="1" />
<text x="550" y="305" font-size="14" text-anchor="middle" fill="#FFA500">Pending</text>
<rect x="100" y="330" width="350" height="40" fill="white" stroke="black" stroke-width="1" />
<text x="275" y="355" font-size="14" text-anchor="middle">Sample Task 2</text>
<rect x="450" y="330" width="200" height="40" fill="white" stroke="black" stroke-width="1" />
<text x="550" y="355" font-size="14" text-anchor="middle" fill="#4CAF50">Completed</text>
<rect x="100" y="380" width="350" height="40" fill="white" stroke="black" stroke-width="1" />
<text x="275" y="405" font-size="14" text-anchor="middle">Sample Task 3</text>
<rect x="450" y="380" width="200" height="40" fill="white" stroke="black" stroke-width="1" />
<text x="550" y="405" font-size="14" text-anchor="middle" fill="#FFA500">Pending</text>
<rect x="0" y="520" width="800" height="80" fill="#f0f0f0" stroke="black" stroke-width="1" />
<text x="400" y="560" font-size="14" text-anchor="middle">© 2025 Task Manager</text>
</svg>